<svg id="svg" version="1.1" viewBox="0 0 300 296.0526315789473" width="300" height="296.0526315789473" xmlns="http://www.w3.org/2000/svg"><svg xmlns="http://www.w3.org/2000/svg"><defs><clipPath id="clip-1"><rect x="0" y="0" transform="scale(0.24671,0.24671)" width="1216" height="1200" fill="none"/></clipPath></defs><g clip-path="url(#clip-1)" fill="none" fill-rule="nonzero" stroke="none" stroke-width="1" stroke-linecap="butt" stroke-linejoin="miter" stroke-miterlimit="10" stroke-dasharray="" stroke-dashoffset="0" font-family="none" font-weight="none" font-size="none" text-anchor="none" style="mix-blend-mode: normal"><path d="M50.20387,1.33396c5.47821,-0.2031 12.30271,-0.01601 17.85049,0.03012l26.60921,0.10542l88.19704,-0.01216l46.84539,-0.02825c5.97113,-0.00953 19.18791,-0.45445 24.3861,0.42962c9.22944,1.65819 17.78289,5.95641 24.62171,12.37444c9.3898,8.58027 14.92599,20.58042 15.3602,33.29144c0.61431,15.32319 0.11102,33.54967 0.06168,49.10748l-0.06908,82.04975l0.06661,47.77377c-0.00493,6.40633 0.32319,19.59942 -0.62171,25.40625c-1.49753,9.29359 -5.68421,17.94572 -12.04441,24.88569c-8.70395,9.40707 -20.79523,14.95806 -33.60197,15.42681c-14.30625,0.34786 -30.05304,0.04688 -44.46217,0.03701l-85.53553,0.00247l-46.44572,-0.00493c-18.48824,-0.01234 -34.96184,1.95888 -49.65249,-11.54605c-6.81733,-6.26645 -11.74238,-12.78207 -14.46661,-21.78947c-2.72146,-9 -2.19481,-17.98199 -2.19893,-27.20576l-0.04554,-24.9523l-0.02906,-81.87089l0.04337,-50.44515l0.01836,-17.51423c0.03116,-5.53569 -0.07083,-10.33372 0.84123,-15.83067c1.47311,-8.96028 5.48465,-17.31035 11.55898,-24.06012c8.38818,-9.36222 20.15998,-14.99762 32.71285,-15.66028zM60.67204,172.18273c0.39375,3.25115 -0.02146,6.49589 0.03997,9.78824c0.73446,2.13799 -0.27952,3.15987 -2.19498,3.99548c-1.73166,0.54178 -4.44276,1.35419 -3.66242,3.65304c2.81028,2.84901 7.38627,-1.20148 9.48281,-3.11324c2.04474,-5.98421 1.40033,-15.47319 0.53586,-21.73125c-1.08059,1.08873 -2.3065,2.10049 -3.47368,3.10214c-0.50206,1.60559 -0.63824,2.64227 -0.72755,4.30559zM84.45863,189.02689l-1.32878,2.16291c-0.10387,2.29737 -0.55781,18.18577 -0.07648,19.46965c0.66686,0.64811 1.32607,0.74581 2.17007,0.23931c0.63602,-1.49087 0.15543,-18.82426 -0.10436,-21.42484l-0.41941,-0.54794z" fill="#000000"/><path d="M236.4634,89.39975c0.04046,-0.00567 0.08117,-0.0116 0.12163,-0.01752c8.16316,-0.41349 15.98734,-0.16924 22.65099,5.09803c10.56661,8.35584 9.76234,20.00329 9.7426,32.16266l-0.03207,20.48709l0.03454,19.33224c0.00987,5.54827 0.17023,10.59498 -0.62911,16.13487c-1.875,13.00905 -8.8273,21.6528 -22.3199,23.13997c-8.26406,0.50847 -15.67747,0.36464 -22.47089,-4.93273c-11.71258,-9.13298 -10.43388,-22.8185 -10.50863,-36.2097c-0.0972,-9.24474 -0.09375,-18.49021 0.01061,-27.7347c0.0412,-6.30839 0.07919,-12.78898 0.04539,-19.09243c-0.08117,-15.10115 7.64482,-26.606 23.35485,-28.36776z" fill="#de3031"/><path d="M239.81077,110.81719c3.77812,-0.30271 5.46933,1.2116 5.80238,4.98947c0.42681,4.8449 0.25609,9.71053 0.26373,14.57738l0.0375,20.63388c-0.02763,8.69013 0.01209,17.52928 -0.13988,26.22804c-0.05526,3.16604 -0.58224,5.76982 -3.77146,7.02385c-3.94737,0.25312 -5.75896,-1.88462 -6.00765,-5.66521c-0.72163,-10.97492 -0.41867,-22.47903 -0.4199,-33.47541l-0.00025,-17.57467c0.00099,-3.98339 -0.43816,-9.88224 0.84548,-13.70132c0.52648,-1.56587 1.86883,-2.45329 3.39005,-3.03602z" fill="#000000"/><path d="M151.99145,90.29457c7.61571,0.08512 15.23191,0.1051 22.84786,0.06044l0.07056,34.44104c-0.00493,3.55757 -0.23265,7.05222 -0.17541,10.62632c1.0764,-3.35452 2.23273,-10.556 3.13248,-14.42368l3.74556,-16.6426c1.00979,-4.34161 2.40296,-9.66686 3.06735,-14.02549l23.07262,0.00715c-2.28898,9.13372 -4.3537,19.3088 -6.56916,28.63495l-3.56891,14.87936c-0.39942,1.64803 -2.1148,8.306 -1.98232,9.58273c0.54128,5.21891 2.91859,11.76735 4.10008,16.98503c3.08314,13.61571 6.80156,27.37475 9.8028,40.96061c0.22944,1.2222 0.55609,2.43503 0.86299,3.6412l-23.99186,0.04095c-0.32566,-2.75674 -1.58906,-8.10148 -2.17771,-10.96554c-1.65271,-8.19523 -3.41127,-16.369 -5.27516,-24.51883c-1.06752,-4.83676 -2.61242,-14.19276 -4.12648,-18.34317c-0.35354,4.21036 0.00025,12.65748 0.00493,17.22311l0.10016,36.59803c-7.63766,-0.05132 -15.27533,-0.06118 -22.91324,-0.02961z" fill="#de3031"/><path d="M103.64457,90.42952c12.49564,-0.45518 26.83322,-0.10288 39.47344,-0.14112c-0.13791,7.28709 -0.03281,14.91044 -0.03873,22.22344c-7.39564,-0.09967 -14.89589,0.18577 -22.23676,0.01332c-0.16382,7.30016 -0.21118,14.6023 -0.14186,21.9037c7.13684,0.07179 14.27418,0.07599 21.41127,0.01234v22.19383l-21.41694,0.0153c0.13692,2.35707 0.00863,5.8801 0.01234,8.31513l0.01924,17.34918l8.73479,-0.02122c5.03956,-0.09449 10.08035,-0.12064 15.12064,-0.07796l-0.04095,22.82664c-4.94137,-0.16184 -10.69145,-0.01036 -15.6898,-0.00641l-31.43018,-0.02738l0.00148,-114.51439z" fill="#de3031"/><path d="M58.50715,94.61053c3.76283,-0.03454 7.52615,0.0111 11.28701,0.13618c0.41299,10.00757 0.03676,19.93446 0.1389,29.94646c0.08635,8.46859 0.14408,17.08791 -0.14729,25.55132l-28.96308,0.10066c-12.39745,0.01678 -10.7403,-7.69342 -10.72895,-17.28183l0.01036,-19.45312c-0.00789,-3.68388 0.00296,-7.36801 0.03232,-11.05189c3.62294,-0.08413 7.4287,0.02887 11.06768,0.08215c0.16949,10.77829 0.23906,21.55781 0.20822,32.33734c1.47681,0.15197 2.98569,0.14186 4.47212,0.16061c-0.02245,-5.14095 0.00888,-10.28191 0.09424,-15.42237c2.69211,-0.02072 4.81258,-0.01752 7.51456,0.19564c-0.13076,5.02771 -0.16456,10.0574 -0.10164,15.08635l5.07582,-0.01653c0.03898,-13.17681 -0.30839,-27.31332 0.03972,-40.37097z" fill="#fefefe"/><path d="M30.16727,156.27459l20.66151,-0.06908c7.24071,-0.01752 16.68923,-1.75115 19.42031,7.60016c0.77689,2.95535 0.72286,6.10979 0.74679,9.13002c0.03281,4.15436 0.03059,8.37582 0.04613,12.51291c0.03775,10.15263 -3.13618,14.92944 -13.63692,14.87541l-5.84975,-0.06365c-0.06562,-4.78692 -0.07155,-9.57484 -0.01752,-14.36201c1.83479,-0.08561 5.36817,-0.40929 6.97919,0.06809c-1.73166,0.54178 -4.44276,1.35419 -3.66242,3.65304c2.81028,2.84901 7.38627,-1.20148 9.48281,-3.11324c2.04474,-5.98421 1.40033,-15.47319 0.53586,-21.73125c-1.08059,1.08873 -2.3065,2.10049 -3.47368,3.10214c-0.50206,1.60559 -0.63824,2.64227 -0.72755,4.30559l-0.26571,-0.06414c-2.26135,-0.88446 -26.45674,-0.39326 -30.26423,-0.33799c-0.0523,-5.07212 -0.11201,-10.43956 0.02516,-15.506z" fill="#fefefe"/><path d="M84.45863,189.02689l-0.99202,0.5625l-0.29581,-0.19441c-0.06982,-0.9977 -0.0486,-1.9315 -0.0713,-2.92155c-0.35551,-15.56398 0.00345,-31.10477 0.00493,-46.66604l-0.03281,-38.34942c-0.00913,-2.13553 -0.38684,-16.46373 -0.05526,-17.42072c0.65724,-0.68684 0.99646,-0.62393 1.92632,-0.26127c0.68141,1.0838 0.37673,17.34671 0.38215,20.1338l0.00469,51.6111l0.00814,21.27212c-0.00074,1.96776 0.18923,10.99934 -0.63799,12.13298z" fill="#fefefe"/></g></svg></svg>